<?xml version="1.0" encoding="utf-8"?>
<!-- Generator: Adobe Illustrator 18.1.1, SVG Export Plug-In . SVG Version: 6.00 Build 0)  -->
<svg version="1.1" id="Layer_1" xmlns="http://www.w3.org/2000/svg" xmlns:xlink="http://www.w3.org/1999/xlink" x="0px" y="0px"
	 width="496.2px" height="407.3px" viewBox="232 -187.3 496.2 407.3" enable-background="new 232 -187.3 496.2 407.3"
	 xml:space="preserve">
<g>
	<g>
		<polygon fill="#F6901E" points="646.5,147.3 646.5,210.3 709.5,156.3 		"/>
		<path fill="#FFFFFF" d="M646.3,147h0.3l63.5,9.1l-0.4,0.4l-63.4,54.3V147z M708.9,156.5l-62.2-8.9v62.2L708.9,156.5z"/>
	</g>
	<g>
		<polygon fill="#C64A77" points="727.5,93.3 646.5,147.3 709.5,156.3 		"/>
		<path fill="#FFFFFF" d="M727.9,92.7l-0.2,0.7l-18.1,63.2l-63.9-9.1l0.5-0.4L727.9,92.7z M709.3,156l17.8-62.1l-79.9,53.3
			L709.3,156z"/>
	</g>
	<g>
		<polygon fill="#CE5F8D" points="664.5,84.3 646.5,147.3 727.5,93.3 		"/>
		<path fill="#FFFFFF" d="M664.3,84l63.9,9.2l-0.5,0.4L646.1,148l0.2-0.7L664.3,84z M726.8,93.5l-62.1-8.9l-17.8,62.1L726.8,93.5z"
			/>
	</g>
	<g>
		<polygon fill="#E32020" points="556.5,174.3 574.5,210.3 646.5,210.3 646.5,147.3 		"/>
		<path fill="#FFFFFF" d="M646.8,147v63.6h-72.4l-0.1-0.1l-18.1-36.3l0.3-0.1L646.8,147z M646.3,210.1v-62.4l-89.4,26.8l17.8,35.6
			H646.3z"/>
	</g>
	<g>
		<polygon fill="#ED3737" points="529.5,111.3 556.5,174.3 646.5,147.3 		"/>
		<path fill="#FFFFFF" d="M529.1,110.9l0.5,0.2l117.8,36.2l-91,27.3L529.1,110.9z M645.7,147.3L530,111.7l26.7,62.3L645.7,147.3z"/>
	</g>
	<g>
		<polygon fill="#F77207" points="565.5,57.3 529.5,111.3 646.5,147.3 		"/>
		<path fill="#FFFFFF" d="M565.5,56.9l81.8,90.9l-118.2-36.4l0.2-0.3L565.5,56.9z M645.7,146.8l-80.2-89.1l-35.6,53.5L645.7,146.8z"
			/>
	</g>
	<g>
		<polygon fill="#F6901E" points="565.5,57.3 646.5,147.3 628.5,75.3 		"/>
		<path fill="#FFFFFF" d="M564.7,56.8l64,18.3v0.1l18.2,73L564.7,56.8z M628.3,75.5l-62-17.7l79.7,88.6L628.3,75.5z"/>
	</g>
	<g>
		<polygon fill="#F77207" points="664.5,84.3 646.5,147.3 628.5,75.3 		"/>
		<path fill="#FFFFFF" d="M628.2,75l36.7,9.2l-0.1,0.2l-18.3,63.9L628.2,75z M664.2,84.5l-35.3-8.8l17.6,70.6L664.2,84.5z"/>
	</g>
	<g>
		<polygon fill="#ED3737" points="727.5,93.3 691.5,30.3 664.5,84.3 		"/>
		<path fill="#FFFFFF" d="M691.5,29.8l0.2,0.4L728,93.6l-63.8-9.1l0.2-0.3L691.5,29.8z M727,93l-35.5-62.2l-26.6,53.3L727,93z"/>
	</g>
	<g>
		<polygon fill="#F77207" points="700.5,-23.7 691.5,30.3 727.5,93.3 		"/>
		<path fill="#FFFFFF" d="M700.5-25l27.6,119.9l-36.9-64.6L700.5-25z M726.9,91.7L700.6-22.4l-8.8,52.7L726.9,91.7z"/>
	</g>
	<g>
		<polygon fill="#F3560B" points="664.5,84.3 628.5,30.3 628.5,75.3 		"/>
		<path fill="#FFFFFF" d="M628.3,29.5l36.8,55.2l-36.8-9.2V29.5z M664,83.9l-35.2-52.8v44L664,83.9z"/>
	</g>
	<g>
		<polygon fill="#ED3737" points="664.5,3.3 664.5,84.3 628.5,30.3 		"/>
		<path fill="#FFFFFF" d="M664.8,2.8v82.3l-36.6-54.9l0.2-0.1L664.8,2.8z M664.3,83.5V3.8l-35.4,26.6L664.3,83.5z"/>
	</g>
	<g>
		<polygon fill="#E32020" points="691.5,30.3 664.5,3.3 664.5,84.3 		"/>
		<path fill="#FFFFFF" d="M664.3,2.7l27.6,27.6l-0.1,0.2l-27.5,54.9V2.7z M691.2,30.4L664.8,4v79.3L691.2,30.4z"/>
	</g>
	<g>
		<polygon fill="#F6901E" points="664.5,3.3 691.5,30.3 700.5,-23.7 		"/>
		<path fill="#FFFFFF" d="M700.9-24.3l-9.2,55.1L664.2,3.3l0.2-0.2L700.9-24.3z M691.3,29.8l8.9-52.9L664.9,3.4L691.3,29.8z"/>
	</g>
	<g>
		<polygon fill="#F3560B" points="664.5,-68.7 664.5,3.3 700.5,-23.7 		"/>
		<path fill="#FFFFFF" d="M664.3-69.4l36.6,45.8l-0.2,0.2L664.3,3.9C664.3,3.9,664.3-69.4,664.3-69.4z M700.2-23.7L664.8-68V2.8
			L700.2-23.7z"/>
	</g>
	<g>
		<polygon fill="#E32020" points="538.5,-167.7 664.5,-68.7 664.5,3.3 		"/>
		<path fill="#FFFFFF" d="M537.2-169l1.4,1.1l126.2,99.1V4.1L537.2-169z M664.3-68.6l-124.5-97.8L664.3,2.5V-68.6z"/>
	</g>
	<g>
		<polygon fill="#8B0F04" points="628.5,30.3 664.5,3.3 538.5,-167.7 		"/>
		<path fill="#FFFFFF" d="M537.3-169.8L664.9,3.4l-0.2,0.1l-36.2,27.2l-0.1-0.3L537.3-169.8z M664.2,3.3L539.8-165.6l88.8,195.5
			L664.2,3.3z"/>
	</g>
	<g>
		<polygon fill="#F77207" points="628.5,75.3 610.5,48.3 628.5,30.3 		"/>
		<path fill="#FFFFFF" d="M628.8,29.7v46.4l-18.6-27.9l0.1-0.1L628.8,29.7z M628.3,74.5V30.9l-17.4,17.4L628.3,74.5z"/>
	</g>
	<g>
		<polygon fill="#F77207" points="565.5,57.3 628.5,75.3 583.5,39.3 		"/>
		<path fill="#FFFFFF" d="M583.5,39l0.2,0.1l46,36.8l-64.6-18.5L583.5,39z M627.4,74.7l-43.9-35.1L566,57.1L627.4,74.7z"/>
	</g>
	<g>
		<polygon fill="#E32020" points="592.5,21.3 610.5,48.3 628.5,75.3 583.5,39.3 		"/>
		<path fill="#FFFFFF" d="M592.5,20.8l37.1,55.7l-46.4-37.1l0.1-0.2L592.5,20.8z M627.4,74.1l-34.9-52.3l-8.7,17.4L627.4,74.1z"/>
	</g>
	<g>
		<polygon fill="#C02A0E" points="538.5,-167.7 610.3,21 628.3,30 		"/>
		<path fill="#FFFFFF" d="M538.7-167.8l90,198.3L610,21.1V21l-71.8-188.7L538.7-167.8z M627.7,29.4l-86.2-189.8l68.9,181.1
			L627.7,29.4z"/>
	</g>
	<g>
		<polygon fill="#F6901E" points="475.5,-185.7 592.5,21.3 610.5,48.3 610.5,21.3 		"/>
		<path fill="#FFFFFF" d="M475.7-185.8l135,207.1v27.9l-18.5-27.7l-117-207L475.7-185.8z M610.3,21.4L479.6-179L592.7,21.2
			l17.5,26.3V21.4H610.3z"/>
	</g>
	<g>
		<polygon fill="#F77207" points="538.5,-167.7 610,21.3 475.5,-185.7 		"/>
		<path fill="#FFFFFF" d="M474.9-186.1l63.8,18.2v0.1L611,23.4l-1.3-1.9L474.9-186.1z M538.3-167.5l-62.2-17.8L609,19.2L538.3-167.5
			z"/>
	</g>
	<g>
		<polygon fill="#BD1F17" points="547.5,12.3 583.5,39.3 592.5,21.3 475.5,-185.7 		"/>
		<path fill="#FFFFFF" d="M475.7-185.8L592.8,21.3l-9.2,18.4l-0.2-0.2l-36.1-27l-72-198.1L475.7-185.8z M592.2,21.3L476.8-183
			l70.9,195.1l35.7,26.8L592.2,21.3z"/>
	</g>
	<g>
		<polygon fill="#8B0F04" points="565.5,57.3 583.5,39.3 547.5,12.3 		"/>
		<path fill="#FFFFFF" d="M547,11.6l36.9,27.7l-18.5,18.5L547,11.6z M583.1,39.3L548,13l17.5,43.8L583.1,39.3z"/>
	</g>
	<g>
		<polygon fill="#E32020" points="502.5,-23.7 565.5,57.3 547.5,12.3 		"/>
		<path fill="#FFFFFF" d="M501-25.2l46.7,37.4l18.7,46.7L501-25.2z M547.3,12.5L504-22.1l60.6,77.9L547.3,12.5z"/>
	</g>
	<g>
		<polygon fill="#F3560B" points="475.5,-185.7 502.5,-23.7 547.5,12.3 		"/>
		<path fill="#FFFFFF" d="M475.8-185.8L548.1,13l-45.8-36.6v-0.1l-27-162L475.8-185.8z M547,11.6l-70.8-194.7l26.5,159.2L547,11.6z"
			/>
	</g>
	<g>
		<polygon fill="#ED3737" points="502.5,-23.7 529.5,111.3 565.5,57.3 		"/>
		<path fill="#FFFFFF" d="M502.1-24.7l63.8,82l-0.1,0.1l-36.3,54.5l-0.1-0.6L502.1-24.7z M565.2,57.3l-62.2-80l26.7,133.4
			L565.2,57.3z"/>
	</g>
	<g>
		<polygon fill="#F6901E" points="574.5,210.3 484.5,192.3 556.5,174.3 		"/>
		<path fill="#FFFFFF" d="M556.7,174l0.1,0.2l18.2,36.5l-91.6-18.3L556.7,174z M574.1,210l-17.7-35.4l-70.7,17.7L574.1,210z"/>
	</g>
	<g>
		<polygon fill="#F77207" points="529.5,111.3 484.5,192.3 556.5,174.3 		"/>
		<path fill="#FFFFFF" d="M529.5,110.7l0.2,0.5l27.1,63.3L484,192.7l0.3-0.5L529.5,110.7z M556.2,174.1l-26.7-62.3L485,191.9
			L556.2,174.1z"/>
	</g>
	<g>
		<polygon fill="#F3560B" points="475.5,84.3 484.5,192.3 529.5,111.3 		"/>
		<path fill="#FFFFFF" d="M475.2,83.9l54.6,27.3l-45.5,81.9L475.2,83.9z M529.2,111.4l-53.4-26.7l8.9,106.7L529.2,111.4z"/>
	</g>
	<g>
		<polygon fill="#F3560B" points="466.5,-23.7 475.5,84.3 502.5,-23.7 		"/>
		<path fill="#FFFFFF" d="M466.2-23.9h36.6l-0.1,0.3L475.3,85.9L466.2-23.9z M502.2-23.4h-35.4l8.9,106.2L502.2-23.4z"/>
	</g>
	<g>
		<polygon fill="#F6901E" points="529.5,111.3 475.5,84.3 502.5,-23.7 		"/>
		<path fill="#FFFFFF" d="M502.5-24.8l0.2,1.1l27.1,135.5l-54.6-27.3v-0.2L502.5-24.8z M529.2,110.9L502.5-22.5L475.8,84.2
			L529.2,110.9z"/>
	</g>
	<g>
		<polygon fill="#ED3737" points="475.5,-185.7 466.5,-23.7 484.5,-23.7 		"/>
		<path fill="#FFFFFF" d="M475.3-185.7h0.5l9,162.3h-18.5L475.3-185.7z M484.3-23.9l-8.7-157.2l-8.7,157.2L484.3-23.9L484.3-23.9z"
			/>
	</g>
	<g>
		<polygon fill="#E32020" points="502.5,-23.7 484.5,-23.7 475.5,-185.7 		"/>
		<path fill="#FFFFFF" d="M475.8-185.7l27,162.3h-18.5v-0.2l-9-162L475.8-185.7z M502.2-23.9L476-181.1l8.7,157.2L502.2-23.9
			L502.2-23.9z"/>
	</g>
	<g>
		<polygon fill="#F3560B" points="466.5,-23.7 448.5,-113.7 475.5,-185.7 		"/>
		<path fill="#FFFFFF" d="M475.9-187.3l-9.2,165.6l-18.4-92v-0.1L475.9-187.3z M466.4-25.7l8.8-158.4l-26.4,70.4L466.4-25.7z"/>
	</g>
	<g>
		<polygon fill="#F6901E" points="403.5,12.3 475.5,84.3 466.5,-23.7 		"/>
		<path fill="#FFFFFF" d="M466.7-24.1v0.4L475.8,85l-72.7-72.7l0.3-0.2L466.7-24.1z M475.2,83.6l-8.9-106.9l-62.4,35.6L475.2,83.6z"
			/>
	</g>
	<g>
		<polygon fill="#F6901E" points="448.5,-113.7 403.5,12.3 466.5,-23.7 		"/>
		<path fill="#FFFFFF" d="M448.6-114.6l0.2,0.9l18,90.2l-0.2,0.1L403,12.9l0.2-0.6L448.6-114.6z M466.2-23.8l-17.8-88.9L403.9,11.8
			L466.2-23.8z"/>
	</g>
	<g>
		<polygon fill="#BD1F17" points="286.5,93.3 403.5,12.3 448.5,-113.7 		"/>
		<path fill="#FFFFFF" d="M449.3-115.1L403.8,12.4h-0.1L285.3,94.3l1-1.3L449.3-115.1z M403.3,12.1l44.5-124.5l-160,204.5
			L403.3,12.1z"/>
	</g>
	<g>
		<polygon fill="#F77207" points="475.5,-185.7 385.5,-149.7 286.5,93.3 448.5,-113.7 		"/>
		<path fill="#FFFFFF" d="M475.9-186.1l-0.2,0.5l-27,72.1L285.6,94.9l0.7-1.7l99-243.1h0.1L475.9-186.1z M448.3-113.8l26.8-71.4
			l-89.4,35.8L287.4,91.8L448.3-113.8z"/>
	</g>
	<g>
		<polygon fill="#F6901E" points="484.5,192.3 439.5,93.3 475.5,84.3 		"/>
		<path fill="#FFFFFF" d="M475.7,84l9.1,109.7L439.2,93.1L475.7,84z M484.1,190.9l-8.9-106.3l-35.4,8.9L484.1,190.9z"/>
	</g>
	<g>
		<polygon fill="#CE5F8D" points="403.5,12.3 439.5,93.3 475.5,84.3 		"/>
		<path fill="#FFFFFF" d="M402.7,11.2L476,84.5l-36.6,9.2l-0.1-0.2L402.7,11.2z M475,84.2l-70.7-70.7L439.7,93L475,84.2z"/>
	</g>
	<g>
		<polygon fill="#C02A0E" points="403.5,219.3 484.5,192.3 439.5,93.3 394.5,102.3 		"/>
		<path fill="#FFFFFF" d="M439.7,93l0.1,0.2l45.1,99.3l-81.6,27.2v-0.3l-9-117.2L439.7,93z M484.2,192.2l-44.8-98.6l-44.6,8.9
			l8.9,116.5L484.2,192.2z"/>
	</g>
	<g>
		<polygon fill="#EB300B" points="403.5,12.3 439.5,93.3 349.5,48.3 		"/>
		<path fill="#FFFFFF" d="M403.6,11.9l0.1,0.3L440,93.8l-91-45.5L403.6,11.9z M439,92.8l-35.6-80.1L350,48.3L439,92.8z"/>
	</g>
	<g>
		<polygon fill="#EB300B" points="286.5,93.3 439.5,93.3 349.5,48.3 		"/>
		<path fill="#FFFFFF" d="M349.5,48l0.1,0.1l90.9,45.5H285.7L349.5,48z M438.5,93.1l-88.9-44.5l-62.2,44.5
			C287.4,93.1,438.5,93.1,438.5,93.1z"/>
	</g>
	<g>
		<polygon fill="#F6901E" points="394.5,102.3 286.5,93.3 439.5,93.3 		"/>
		<path fill="#FFFFFF" d="M286.5,93.1h153v0.5l-45,9l-108-9V93.1z M437,93.6H292.5l102,8.5L437,93.6z"/>
	</g>
	<g>
		<polygon fill="#C64A77" points="403.5,219.3 286.5,93.3 394.5,102.3 		"/>
		<path fill="#FFFFFF" d="M285.9,93l108.9,9.1v0.2l9,117.7l-0.5-0.5L285.9,93z M394.3,102.5l-107.1-8.9l116,125L394.3,102.5z"/>
	</g>
	<g>
		<polygon fill="#F6901E" points="340.5,219.3 403.5,219.3 286.5,93.3 		"/>
		<path fill="#FFFFFF" d="M285.7,92.1l1,1.1l117.4,126.4h-63.7l-0.1-0.2L285.7,92.1z M402.9,219.1L287.3,94.6l53.4,124.5H402.9z"/>
	</g>
	<g>
		<polygon fill="#8B0F04" points="277.5,183.3 340.5,219.3 286.5,93.3 		"/>
		<path fill="#FFFFFF" d="M286.4,92.3L341,219.9l-63.8-36.5v-0.2L286.4,92.3z M340,218.7L286.7,94.3l-8.9,88.9L340,218.7z"/>
	</g>
	<g>
		<polygon fill="#F6901E" points="232.5,93.3 277.5,183.3 286.5,93.3 		"/>
		<path fill="#FFFFFF" d="M232.1,93.1h54.7v0.3l-9.1,90.9L232.1,93.1z M286.2,93.6h-53.3l44.4,88.9L286.2,93.6z"/>
	</g>
	<g>
		<polygon fill="#F6901E" points="250.5,3.3 232.5,93.3 286.5,21.3 		"/>
		<path fill="#FFFFFF" d="M250.3,2.9l0.3,0.1l36.3,18.1l-54.8,73.1L250.3,2.9z M286.1,21.4L250.7,3.7L233,92.3L286.1,21.4z"/>
	</g>
	<g>
		<polygon fill="#C02A0E" points="286.5,93.3 232.5,93.3 286.5,21.3 		"/>
		<path fill="#FFFFFF" d="M286.8,20.6v73H232L286.8,20.6z M286.3,93.1v-71l-53.2,71C233.1,93.1,286.3,93.1,286.3,93.1z"/>
	</g>
	<g>
		<polygon fill="#EB300B" points="331.5,-50.7 286.5,93.3 385.5,-149.7 		"/>
		<path fill="#FFFFFF" d="M385.3-149.8l0.5,0.2l-99,243l-0.5-0.2l45-144L385.3-149.8z M288.5,87.7l95.1-233.4l-51.9,95.1L288.5,87.7
			z"/>
	</g>
	<g>
		<polygon fill="#C02A0E" points="286.5,93.3 331.5,-50.7 286.5,21.3 		"/>
		<path fill="#FFFFFF" d="M332.3-52.5L286.2,94.9V21.2v-0.1L332.3-52.5z M286.8,91.7l43.9-140.6l-43.9,70.3V91.7z"/>
	</g>
	<g>
		<polygon fill="#F6901E" points="250.5,3.3 286.5,21.3 331.5,-50.7 		"/>
		<path fill="#FFFFFF" d="M332.3-51.5l-45.7,73.2L250,3.4L332.3-51.5z M286.4,21l44.3-70.8L251,3.3L286.4,21z"/>
	</g>
	<g>
		<polygon fill="#E32020" points="250.5,3.3 385.5,-149.7 331.5,-50.7 		"/>
		<path fill="#FFFFFF" d="M386.8-151.5l-1.1,2l-54,99.1h-0.1L249,4.7l1.3-1.4L386.8-151.5z M331.3-50.9l52.9-97L252,2L331.3-50.9z"
			/>
	</g>
	<g>
		<polygon fill="#F3560B" points="610.5,21.3 628.5,30.3 610.5,48.3 		"/>
		<path fill="#FFFFFF" d="M610.3,20.9l18.7,9.3l-18.7,18.7C610.3,48.9,610.3,20.9,610.3,20.9z M628.1,30.4l-17.3-8.7v26L628.1,30.4z
			"/>
	</g>
</g>
</svg>
